<svg xmlns="http://www.w3.org/2000/svg" viewBox="0 0 24 24" fill="currentColor">
  <path d="M12.22 19.85c-.18.18-.5.21-.71 0a.504.504 0 0 1 0-.71l3.39-3.39-1.41-1.41-3.39 3.39c-.19.2-.51.19-.71 0a.504.504 0 0 1 0-.71l3.39-3.39-1.41-1.41-3.39 3.39c-.18.18-.5.21-.71 0a.513.513 0 0 1 0-.71l3.39-3.39-1.42-1.41-3.39 3.39c-.18.18-.5.21-.71 0a.513.513 0 0 1 0-.71L9.52 8.4l1.87 1.86c.95.95 2.59.94 3.54 0 .98-.98.98-2.56 0-3.54l-1.86-1.86.28-.28c.78-.78 2.05-.78 2.83 0l4.24 4.24c.78.78.78 2.05 0 2.83l-8.2 8.2zm9.61-6.78a4.008 4.008 0 0 0 0-5.66l-4.24-4.24a4.008 4.008 0 0 0-5.66 0l-.28.28-.28-.28a4.008 4.008 0 0 0-5.66 0L2.17 6.71a3.992 3.992 0 0 0-.4 5.19l1.45-1.45a2 2 0 0 1 .37-2.33l3.54-3.54c.78-.78 2.05-.78 2.83 0l3.56 3.56c.18.18.21.5 0 .71-.21.21-.53.18-.71 0L9.52 5.57l-5.8 5.79c-.98.97-.98 2.56 0 3.54.39.39.89.63 1.42.7a2.458 2.458 0 0 0 2.12-.7l3.39-3.39 1.42 1.42-3.39 3.39c-.98.97-.98 2.56 0 3.54.39.39.89.63 1.42.7a2.458 2.458 0 0 0 2.12-.7l3.39-3.39 1.41 1.41-3.39 3.39c-.97.98-.97 2.56 0 3.54.39.39.89.63 1.42.7a2.458 2.458 0 0 0 2.12-.7l8.2-8.19z"/>
</svg>
